<?xml version="1.0" encoding="UTF-8"?>
<svg version="1.1" xmlns="http://www.w3.org/2000/svg" width="2048" height="2048">
<path d="M0 0 C675.84 0 1351.68 0 2048 0 C2048 675.84 2048 1351.68 2048 2048 C1372.16 2048 696.32 2048 0 2048 C0 1372.16 0 696.32 0 0 Z " fill="#412F24" transform="translate(0,0)"/>
<path d="M0 0 C31.7368221 -0.8469233 63.9884413 0.78745876 95 8 C97.14181434 8.48227179 99.28374968 8.96400645 101.42578125 9.4453125 C106.98867052 10.70549843 112.54081388 12.00775454 118.09130859 13.32128906 C120.57378072 13.90054645 123.05878729 14.45579927 125.55078125 14.9921875 C192.9801274 29.66793888 262.85277928 63.26656946 317.93261719 104.45458984 C319.98167966 105.98630518 322.04048616 107.50403394 324.1015625 109.01953125 C336.35626215 118.07079385 348.38487624 127.47412101 359.59375 137.8046875 C361.6347451 139.6667642 363.70075211 141.48786979 365.78515625 143.30078125 C375.20381912 151.52373686 384.52302002 159.9668653 392.73046875 169.4140625 C395.03139859 172.03577602 397.4002202 174.57813495 399.7902832 177.11816406 C405.81632058 183.53056311 411.57116438 190.067656 417 197 C417.46841309 197.59586914 417.93682617 198.19173828 418.41943359 198.80566406 C447.14799903 235.46599111 471.49463831 276.25800263 487.1875 320.25 C487.47947266 321.06597656 487.77144531 321.88195312 488.07226562 322.72265625 C489.39390548 326.59199587 490.37343842 329.85068419 490 334 C485.18026949 332.39962616 481.45050743 329.68906786 477.375 326.75 C476.63572266 326.22204834 475.89644531 325.69409668 475.13476562 325.15014648 C462.74022845 316.26852036 450.50054323 307.18777876 438.41186523 297.89477539 C425.61838341 288.08025172 412.54775598 278.63278124 399.4609375 269.21484375 C396.4805697 267.06989196 393.50706358 264.91593592 390.5390625 262.75390625 C382.13227709 256.63787808 373.64966244 250.65879655 365.05078125 244.81567383 C359.02613321 240.71839208 353.06041579 236.54445462 347.13256836 232.30834961 C341.17772372 228.07076555 335.09076504 224.03878844 329 220 C327.55016724 219.03090698 327.55016724 219.03090698 326.07104492 218.04223633 C309.07950803 206.69126834 291.7199864 196.16774127 274 186 C278.23305682 189.68670444 282.52398175 193.23301742 287 196.625 C291.83032646 200.30397292 296.58786389 204.06145074 301.3125 207.875 C306.48672541 212.04344224 311.73323307 216.09430715 317.0625 220.0625 C327.93793363 228.16306694 338.532035 236.58459686 349.03466797 245.16162109 C353.35596148 248.68488022 357.72254441 252.14146776 362.125 255.5625 C367.53579859 259.77593379 372.76925911 264.16441571 377.95263672 268.65380859 C381.50363116 271.72799814 385.09739711 274.73356658 388.75 277.6875 C393.13083302 281.24212328 397.31677802 284.96498624 401.484375 288.765625 C404.01330295 291.01181566 406.61049914 293.13531218 409.25 295.25 C415.01378293 299.91007982 420.38763622 304.93574521 425.7890625 310.00390625 C428.7576582 312.78664354 431.79766342 315.47174846 434.87890625 318.12890625 C437.79798371 320.70393038 440.64617353 323.35307797 443.5 326 C447.63949023 329.83800815 451.80975389 333.62481755 456.07421875 337.32421875 C463.58666514 343.86141855 470.8492199 350.65551483 478.10205078 357.47705078 C483.33559708 362.39333735 488.63567256 367.22657954 494 372 C525.32844606 399.92433647 525.32844606 399.92433647 537.26953125 413.98828125 C539.41533274 416.48283603 541.64585677 418.89218982 543.875 421.3125 C566.13848162 445.78559032 584.7268092 473.27253083 601 502 C601.82395264 503.45164551 601.82395264 503.45164551 602.66455078 504.93261719 C619.53076075 535.00743221 631.11479409 568.08389835 639.37255859 601.46826172 C639.93129402 603.72277004 640.50274123 605.97336052 641.08203125 608.22265625 C642.08277543 612.14190538 643.05177864 616.06780244 644 620 C644.1944873 620.80163574 644.38897461 621.60327148 644.58935547 622.42919922 C652.32348196 654.55510637 656.6624244 687.56422867 659.8125 720.4375 C659.99824585 722.33532227 659.99824585 722.33532227 660.18774414 724.27148438 C660.93765825 732.54868201 661.13599071 740.6918424 661 749 C665.22756411 745.0064339 668.65416824 740.65614666 672.125 736 C677.4048435 729.0093525 682.86995033 722.24880876 688.60107422 715.62548828 C690.09100805 713.89425277 691.56416716 712.14969766 693.03515625 710.40234375 C698.06545536 704.44495066 703.1204401 698.64756414 708.76953125 693.2578125 C710.60855912 691.39623963 712.28965469 689.50937595 713.98535156 687.52124023 C718.58127735 682.25343109 723.5178356 677.33747145 728.46484375 672.40234375 C729.46715081 671.39936097 730.46930956 670.39622997 731.47132874 669.39295959 C733.55991534 667.30290862 735.65027388 665.21465112 737.74194336 663.12768555 C740.4023041 660.4730213 743.05814842 657.81389116 745.71266842 655.15338802 C747.77766606 653.08475051 749.84507204 651.01853301 751.9131794 648.95300484 C752.89256411 647.97427995 753.87122681 646.99483194 754.84910393 646.01460075 C759.8580187 640.99627206 764.89333685 636.07894398 770.29603577 631.48377991 C773.17974138 628.97270346 775.83114597 626.23540899 778.5 623.5 C781.73410847 620.18524045 784.98824165 616.97613391 788.51928711 613.97631836 C793.930955 609.26188721 798.96894782 604.17552004 804.03515625 599.09765625 C805.08297946 598.05050864 806.1309509 597.00350934 807.17906189 595.95664978 C809.36326988 593.77390674 811.54568332 591.58938975 813.72680664 589.40356445 C816.50253881 586.62213576 819.28273782 583.84522224 822.06430912 581.06963444 C824.22559203 578.91198979 826.38445714 576.75193853 828.54263115 574.59118462 C829.56601321 573.5671423 830.59011961 572.54382326 831.6150074 571.52128792 C836.78133123 566.36422662 841.86589102 561.17889695 846.60598755 555.62182617 C848.59028825 553.31324506 850.71102922 551.1392113 852.8125 548.9375 C875.50534527 523.93398507 885.12644397 489.2293742 885.16796875 455.91015625 C885.17129715 454.96619492 885.17462555 454.02223358 885.17805481 453.04966736 C885.18309152 451.06379683 885.18546415 449.07791793 885.18530273 447.09204102 C885.18749101 444.0748894 885.20568653 441.05810283 885.22460938 438.04101562 C885.22754374 436.10156374 885.22952825 434.16211013 885.23046875 432.22265625 C885.23765427 431.33175797 885.24483978 430.44085968 885.25224304 429.52296448 C885.38536796 419.5798447 885.38536796 419.5798447 881.1640625 411.07421875 C880.44992187 410.71972656 879.73578125 410.36523438 879 410 C878.26523438 409.63519531 877.53046875 409.27039063 876.7734375 408.89453125 C875.58621094 408.35892578 875.58621094 408.35892578 874.375 407.8125 C859.82486985 400.60162668 850.84235759 388.41830414 845.03125 373.515625 C840.80537625 359.97717762 840.70799853 341.81921795 847 329 C847.63615234 327.61167969 847.63615234 327.61167969 848.28515625 326.1953125 C856.3161858 310.04377117 869.78122044 300.08414598 886.25 293.75 C902.12773281 289.41970923 918.28021144 291.86172734 932.8125 299.1875 C947.76096586 307.78194966 957.91139526 321.00125749 962.875 337.5 C966.75536204 355.5142868 963.96521823 373.14814683 954.0625 388.6875 C948.43877427 396.39094317 942.71726717 401.47809003 934.55078125 406.421875 C933.70902344 406.94265625 932.86726563 407.4634375 932 408 C931.29799469 408.43273224 930.59598938 408.86546448 929.87271118 409.31130981 C927.82810829 410.8342089 927.82810829 410.8342089 927.49447632 413.11764526 C927.49020126 414.345009 927.49020126 414.345009 927.48583984 415.59716797 C927.4725766 416.53019745 927.45931335 417.46322693 927.44564819 418.42453003 C927.45069366 419.43685699 927.45573914 420.44918396 927.4609375 421.4921875 C927.44914459 422.54793976 927.43735168 423.60369202 927.42520142 424.69143677 C927.38985037 428.08610438 927.38078255 431.48016353 927.375 434.875 C927.26880295 456.26121156 926.31314209 477.08242007 922.3125 498.125 C922.11983551 499.14484985 922.11983551 499.14484985 921.92327881 500.18530273 C919.73989628 511.60586801 916.80062702 522.3831308 912 533 C911.69868164 533.68368652 911.39736328 534.36737305 911.08691406 535.07177734 C904.21584119 550.44625733 894.50517098 563.75893665 883.43115234 576.35839844 C881.92087038 578.09076554 880.43682753 579.84310023 878.95703125 581.6015625 C873.85233927 587.65479965 868.67622095 593.47956036 862.99609375 599.0078125 C861.14445406 600.85582863 859.4417805 602.75626357 857.75 604.75 C854.51182247 608.51655149 851.06697497 612.04598906 847.5625 615.5625 C846.77407715 616.35769043 846.77407715 616.35769043 845.96972656 617.16894531 C843.13001065 619.99820187 840.2247469 622.69658362 837.18359375 625.30859375 C832.38015344 629.46682156 827.95431758 633.97418454 823.5 638.5 C818.4303604 643.65101423 813.33838011 648.66079733 807.85351562 653.36914062 C804.92914801 655.94221435 802.21895782 658.71323775 799.5 661.5 C796.24803794 664.83305837 792.97315915 668.0580013 789.42602539 671.07836914 C784.3422567 675.50684775 779.60013103 680.25634033 774.83984375 685.02734375 C773.8817014 685.98481025 772.92341084 686.94212845 771.96498108 687.89930725 C769.96908713 689.89373747 767.97498548 691.88993741 765.98217773 693.88745117 C763.44858137 696.42674399 760.91052017 698.96151903 758.37108517 701.49497128 C756.39509297 703.46732184 754.42152321 705.44208263 752.44864082 707.41754341 C751.06589401 708.80126628 749.6811607 710.18300314 748.29637146 711.56468201 C743.84808171 716.02937982 739.52854197 720.54610221 735.4282074 725.3336792 C733.3869488 727.71526023 731.25323727 730.00870107 729.125 732.3125 C709.24776249 754.19240655 693.09061997 778.54702821 682 806 C681.53029785 807.15918945 681.0605957 808.31837891 680.57666016 809.51269531 C660.85724056 858.41151045 658.64417592 907.1800519 656.08959961 959.3894043 C655.46697448 971.99056544 654.70059874 984.56655572 653.73554993 997.14627075 C652.96138913 1007.29334153 652.35639237 1017.44539358 651.79562378 1027.60620117 C651.48932766 1033.13760992 651.17231093 1038.66840556 650.85546875 1044.19921875 C650.78834183 1045.37144989 650.7212149 1046.54368103 650.65205383 1047.75143433 C649.86517969 1061.43164512 649.0405781 1075.10948337 648.19671631 1088.7862854 C648.02567305 1091.56008372 647.85647216 1094.33398397 647.68902588 1097.10800171 C647.16699778 1105.74163586 646.61119488 1114.37219134 646 1123 C645.92920227 1124.0194873 645.85840454 1125.03897461 645.78546143 1126.08935547 C645.58657037 1128.83247378 645.36336752 1131.57222062 645.12890625 1134.3125 C645.07451889 1135.0761084 645.02013153 1135.8397168 644.96409607 1136.62646484 C644.35110127 1143.15725413 642.27803904 1149.23776238 638.0703125 1154.33984375 C637.42835938 1154.86707031 636.78640625 1155.39429688 636.125 1155.9375 C635.48820312 1156.48277344 634.85140625 1157.02804687 634.1953125 1157.58984375 C627.70663477 1161.75783781 620.45942304 1161.85863862 613 1161 C606.5295235 1158.84957458 601.68110272 1154.67469175 598 1149 C595.180622 1142.77721363 594.55007311 1136.94714609 594.6875 1130.1875 C594.6980542 1129.23069336 594.7086084 1128.27388672 594.71948242 1127.28808594 C594.86720384 1118.95953888 595.43072699 1110.67217029 596.07470703 1102.36938477 C596.96356293 1090.89735014 597.67735717 1079.41705411 598.36459351 1067.93127441 C598.49431288 1065.76415071 598.62483805 1063.59707506 598.7562561 1061.43005371 C599.48152275 1049.46891204 600.13334063 1037.50890531 600.65641785 1025.53717041 C600.96812726 1018.4757424 601.3895538 1011.42666293 601.875 1004.375 C602.05201124 1001.68106244 602.22803723 998.98708088 602.40234375 996.29296875 C602.44921829 995.56848038 602.49609283 994.843992 602.54438782 994.09754944 C603.81454503 974.40449125 604.97091572 954.70720982 606 935 C606.03477448 934.33894508 606.06954895 933.67789017 606.1053772 932.99680328 C608.18980351 893.34727956 609.28071601 853.76942594 609.25 814.0625 C609.2496664 813.12501419 609.24933281 812.18752838 609.24898911 811.22163391 C609.23572844 783.44405405 609.09710272 755.68842636 606.625 728 C606.49202994 726.46558277 606.35913787 724.93115878 606.22631836 723.39672852 C603.4047565 691.19977657 599.19602505 659.53001196 592 628 C591.76555176 626.94603027 591.53110352 625.89206055 591.28955078 624.80615234 C585.41675048 598.43450214 578.13381955 571.2676391 566 547 C558.38471764 546.47320529 553.30559861 548.0645184 546.4375 551.25 C545.44733887 551.69601562 544.45717773 552.14203125 543.43701172 552.6015625 C521.4965395 562.59363791 500.73529061 573.789215 480.625 587.0625 C479.63822266 587.7112207 478.65144531 588.35994141 477.63476562 589.02832031 C462.9323994 597.94463471 462.9323994 597.94463471 453 611 C453.66773438 611.22558594 454.33546875 611.45117188 455.0234375 611.68359375 C458.88417845 613.3910343 462.17052701 615.65310869 465.625 618.0625 C466.33358154 618.55492187 467.04216309 619.04734375 467.7722168 619.5546875 C509.80487837 649.05998627 532.52044971 695.24956844 541.53173828 744.93164062 C544.21117402 761.01379681 545.21646199 777.08319049 545.1875 793.375 C545.18623108 794.11699646 545.18496216 794.85899292 545.18365479 795.62347412 C545.07782268 828.32909284 540.18772033 859.88706114 530 891 C529.71511719 891.88075195 529.43023438 892.76150391 529.13671875 893.66894531 C516.08787572 933.63475109 494.87725915 969.64155538 467 1001 C466.51611816 1001.5470459 466.03223633 1002.0940918 465.53369141 1002.65771484 C460.02288978 1008.86547624 454.39428986 1014.68852215 448 1020 C447.08089844 1020.80695312 446.16179687 1021.61390625 445.21484375 1022.4453125 C417.86403864 1046.36804589 384.96502545 1063.82015599 349 1070 C347.93265625 1070.19464844 346.8653125 1070.38929687 345.765625 1070.58984375 C307.42121767 1074.76636115 271.59369775 1064.35462697 241.40771484 1040.53295898 C201.36734124 1007.99947299 180.96609244 958.2812164 175 908 C174.90356201 907.2356665 174.80712402 906.47133301 174.70776367 905.68383789 C173.74541322 896.92156417 173.81391727 888.12829489 173.81469727 879.32446289 C173.81252952 876.59960856 173.79437264 873.87517271 173.77539062 871.15039062 C173.72138234 854.76123972 174.86481058 838.61516129 178.3125 822.5625 C178.53123779 821.51594238 178.74997559 820.46938477 178.9753418 819.39111328 C179.6372734 816.25779632 180.31716513 813.12881808 181 810 C181.29197266 808.62062256 181.29197266 808.62062256 181.58984375 807.21337891 C193.00046765 753.57360985 220.23117963 702.65551445 258 663 C258.57024902 662.40106934 259.14049805 661.80213867 259.72802734 661.18505859 C267.78605312 652.7845071 276.07275703 645.09997928 285.43017578 638.16845703 C286.8524236 637.10984458 288.2537278 636.0232371 289.65234375 634.93359375 C312.97067397 617.14842663 340.34016876 605.52326389 369 600 C369.8976709 599.81832275 370.7953418 599.63664551 371.72021484 599.44946289 C380.79321053 597.74893547 389.7210596 597.72152487 398.9296875 597.87304688 C406.80052267 597.78726203 406.80052267 597.78726203 413.40234375 593.91015625 C414.62921925 592.63276999 415.82909737 591.32888156 417 590 C418.22063045 588.77920719 419.44588592 587.56302082 420.67578125 586.3515625 C421.88903093 585.11036155 423.10125111 583.86815354 424.3125 582.625 C429.42077364 577.45202452 434.61217747 572.60869189 440.33203125 568.10546875 C443.24392056 565.80750632 446.05377142 563.40818597 448.875 561 C459.80678007 551.89486699 471.83509853 544.33279827 484 537 C484.60585937 536.63438965 485.21171875 536.2687793 485.8359375 535.89208984 C502.68646202 525.83420308 520.76107483 516.80456125 539.23999023 510.17919922 C542.7035423 508.89814443 542.7035423 508.89814443 545.140625 506.25 C544.92225783 502.75612527 543.30696617 500.05211091 541.625 497.0625 C541.26212891 496.4022583 540.89925781 495.7420166 540.52539062 495.06176758 C522.4806721 462.87045242 494.88581013 439.24590253 464.5 419.1875 C463.8480365 418.75524109 463.196073 418.32298218 462.52435303 417.87762451 C437.70960821 401.42836786 412.12905344 386.26613571 386 372 C384.64769287 371.26015869 384.64769287 371.26015869 383.26806641 370.50537109 C380.28477767 368.87506824 377.29911455 367.24920151 374.3125 365.625 C373.43013672 365.14409912 372.54777344 364.66319824 371.63867188 364.16772461 C355.32432749 355.32887459 338.82184141 346.86666961 322.21484375 338.59375 C321.4765011 338.22587749 320.73815845 337.85800499 319.97744179 337.47898483 C313.08854562 334.04767051 306.19715323 330.62138683 299.3034668 327.19970703 C277.03756027 316.14495757 254.9290909 304.92390373 233.5625 292.1875 C231.87954834 291.18638184 231.87954834 291.18638184 230.16259766 290.16503906 C208.44043903 277.18018882 187.28139126 263.15587851 167.56835938 247.26416016 C166.08677157 246.06994134 164.59827785 244.88430494 163.109375 243.69921875 C157.19469587 238.94212682 151.57055587 233.94404225 146.01953125 228.7734375 C143.84469089 226.75167791 141.61522714 224.80964263 139.359375 222.87890625 C134.33938605 218.50345174 129.65054732 213.8006791 124.9543457 209.0847168 C123.4400742 207.56508332 121.9205257 206.05087483 120.40039062 204.53710938 C115.05709033 199.19784439 109.87784285 193.77260935 105 188 C104.09918979 186.9555295 103.19816065 185.91124776 102.296875 184.8671875 C95.65653355 177.06580475 89.24649968 169.11966089 83 161 C82.43796875 160.27458008 81.8759375 159.54916016 81.296875 158.80175781 C47.8032171 115.46023637 21.97513308 66.68576568 4 15 C3.61602051 13.89930176 3.23204102 12.79860352 2.83642578 11.66455078 C2.46888184 10.59060059 2.10133789 9.51665039 1.72265625 8.41015625 C1.39144775 7.44343994 1.06023926 6.47672363 0.71899414 5.48071289 C0 3 0 3 0 0 Z " fill="#D8D3CF" transform="translate(542,473)"/>
<path d="M0 0 C3.39471046 1.4020445 4.87806369 2.84645145 6.8125 5.9453125 C7.32449951 6.76233643 7.83649902 7.57936035 8.36401367 8.42114258 C8.90388916 9.31341553 9.44376465 10.20568848 10 11.125 C10.56887939 12.05787842 11.13775879 12.99075684 11.72387695 13.9519043 C22.61410596 32.11434102 31.25644816 51.31818305 39 71 C39.32838867 71.83337891 39.65677734 72.66675781 39.99511719 73.52539062 C45.03998527 86.46176082 49.18723361 99.65318999 53 113 C53.28875 114.00434082 53.5775 115.00868164 53.875 116.04345703 C66.22282341 159.58469372 72.40939941 204.9122857 72.26074219 250.12695312 C72.25001039 253.99625304 72.26071602 257.86508889 72.2734375 261.734375 C72.28119782 276.41292699 71.71655379 290.90121687 70.24858093 305.50756836 C69.93368448 308.66492185 69.65405167 311.82494836 69.37728882 314.98583984 C68.36909798 325.68540495 66.08295409 336.147562 63.74487305 346.62329102 C63.19268929 349.12648785 62.65950717 351.63045455 62.13989258 354.14038086 C59.88864896 364.86047994 56.95241768 375.19167608 53.4375 385.5625 C53.04791107 386.72264114 53.04791107 386.72264114 52.65045166 387.90621948 C47.90303701 401.99298516 42.46417013 415.60095579 36 429 C35.61730957 429.81033691 35.23461914 430.62067383 34.84033203 431.45556641 C29.72904185 442.18056718 23.49737453 452.1162013 16.9375 462 C16.56213104 462.56740906 16.18676208 463.13481812 15.80001831 463.71942139 C10.61397926 471.52392048 5.02715683 478.83062419 -1 486 C-1.52722656 486.66217529 -2.05445313 487.32435059 -2.59765625 488.0065918 C-3.68767007 489.37407452 -4.83600365 490.69491318 -6 492 C-6.66 492 -7.32 492 -8 492 C-12.98943031 479.9821719 -17.36338078 467.76511405 -21.71502686 455.50485229 C-27.95730695 437.92726598 -34.28311635 420.38710695 -40.875 402.9375 C-61.80937401 347.41647662 -61.80937401 347.41647662 -66.35400391 328.65771484 C-67.06045186 325.75129291 -67.80129089 322.85465362 -68.54296875 319.95703125 C-71.14535598 309.64028189 -73.4538333 299.30135436 -75.25 288.8125 C-75.40098145 287.94898926 -75.55196289 287.08547852 -75.70751953 286.19580078 C-78.67221007 267.87621925 -79.37867669 249.46280234 -79.3125 230.9375 C-79.31067719 229.87038788 -79.30885437 228.80327576 -79.30697632 227.7038269 C-79.25805929 210.62795967 -78.65223972 193.89758634 -76 177 C-75.83371094 175.92991699 -75.66742187 174.85983398 -75.49609375 173.75732422 C-65.2756986 110.55175089 -38.77578031 50.70166463 0 0 Z " fill="#D8D3D0" transform="translate(1122,414)"/>
<path d="M0 0 C0.70898438 0.63550781 1.41796875 1.27101563 2.1484375 1.92578125 C2.89867187 2.57160156 3.64890625 3.21742188 4.421875 3.8828125 C13.01651336 11.7881198 19.40695979 22.52939044 22.1484375 33.92578125 C22.32890625 34.62703125 22.509375 35.32828125 22.6953125 36.05078125 C25.81770406 55.86181735 21.5118923 73.5738713 10.01171875 89.97265625 C1.88923809 100.46242185 -8.17529599 105.27634566 -19.8515625 110.92578125 C-20.43448574 134.52793364 -18.81970126 157.92106806 -17.18676758 181.45324707 C-16.56547588 190.4237323 -15.95931256 199.39525105 -15.359375 208.3671875 C-15.26116959 209.83395715 -15.26116959 209.83395715 -15.16098022 211.33035851 C-14.18859116 225.9365908 -13.35873835 240.54552808 -12.671875 255.16796875 C-12.63038456 256.03296556 -12.58889412 256.89796238 -12.54614639 257.78917122 C-9.22443346 327.80686343 -24.5499627 374.86165037 -66.25 431.05078125 C-68.7391632 434.40781361 -71.1986116 437.78430501 -73.640625 441.17578125 C-74.26211426 442.03381348 -74.88360352 442.8918457 -75.52392578 443.77587891 C-76.7080714 445.41179047 -77.88651179 447.05185311 -79.05810547 448.69677734 C-82.99601781 454.11448973 -87.31291213 459.60064232 -93.8515625 461.92578125 C-100.7056027 462.67015515 -106.92856947 462.59803693 -112.8515625 458.92578125 C-118.24546889 453.85726132 -121.10043011 448.80772438 -121.4140625 441.30078125 C-121.23397764 433.89028918 -118.27021065 429.67726754 -113.8515625 423.92578125 C-112.84863339 422.60050626 -111.84605334 421.27496707 -110.84375 419.94921875 C-108.61844011 417.02132002 -106.37584006 414.10752068 -104.125 411.19921875 C-99.94244129 405.77234275 -95.98382385 400.19795047 -92.04003906 394.59667969 C-90.86610606 392.94622827 -89.67148878 391.31314253 -88.46875 389.68359375 C-69.46584835 363.82567648 -54.77074739 337.86335212 -54.6484375 305.12890625 C-54.64146851 303.88374237 -54.63449951 302.63857849 -54.62731934 301.35568237 C-54.60983978 297.29567804 -54.60313135 293.23581515 -54.6015625 289.17578125 C-54.60097336 288.48110497 -54.60038422 287.78642868 -54.59977722 287.0707016 C-54.58528857 262.86148132 -55.49865667 238.86959594 -57.60754395 214.74584961 C-58.0560691 209.56234381 -58.47903579 204.37670417 -58.90625 199.19140625 C-59.42498639 192.90419651 -59.9467442 186.61739128 -60.49316406 180.33251953 C-61.7707898 165.59185095 -62.99239803 150.94135252 -62.74609375 136.13671875 C-62.72529901 133.68181152 -62.70898645 131.22692812 -62.69506836 128.77197266 C-62.67416866 127.10625008 -62.63337406 125.44067325 -62.57397461 123.77587891 C-61.95464357 113.67873024 -61.95464357 113.67873024 -66.41625977 105.15258789 C-69.47875113 103.12308439 -72.55905935 101.54456507 -75.8515625 99.92578125 C-88.64258168 90.17043112 -96.04719512 76.60492103 -99.49609375 61.01171875 C-101.72724414 41.6423912 -97.98768362 25.45863498 -86.1015625 9.73828125 C-77.03095649 -1.05437591 -62.78535625 -10.90078618 -48.46484375 -12.8984375 C-31.08811766 -14.06727558 -13.74532998 -11.58676733 0 0 Z " fill="#D7D2CE" transform="translate(1347.8515625,605.07421875)"/>
<path d="M0 0 C1 1 1 1 1.375 3.8125 C0.8944406 22.18465564 -17.71434848 43.46522977 -27.20605469 58.21044922 C-32.50567029 66.45125051 -37.75504321 74.72433875 -43 83 C-43.91483154 84.44246094 -43.91483154 84.44246094 -44.84814453 85.9140625 C-51.8805837 97.0223488 -58.77069981 108.19360494 -65.375 119.5625 C-65.95717285 120.56466553 -66.5393457 121.56683105 -67.13916016 122.59936523 C-69.21653313 126.1819559 -71.29241067 129.76529752 -73.3515625 133.35839844 C-85.08682262 153.81207115 -85.08682262 153.81207115 -92.5 156.0625 C-93.325 156.041875 -94.15 156.02125 -95 156 C-98.42469409 152.04076371 -98.44699972 149.42264575 -98.2734375 144.3359375 C-94.83406738 102.37562209 -72.69547697 61.21108315 -44 31 C-42.88960638 29.69276387 -41.78500182 28.38057816 -40.6875 27.0625 C-31.59729275 16.64306433 -15.05803757 -1.83634605 0 0 Z " fill="#402F23" transform="translate(880,1142)"/>
<path d="M0 0 C2.69266987 0.99232968 3.78092105 1.53162432 5.01953125 4.1796875 C5.41205078 5.51386719 5.41205078 5.51386719 5.8125 6.875 C11.00831243 22.26104922 20.64113557 33.45551191 35 41 C39.2783408 42.83889512 43.59841497 44.48148815 48 46 C48 47.32 48 48.64 48 50 C46.88625 50.391875 45.7725 50.78375 44.625 51.1875 C27.9929218 57.49419632 14.89457212 67.69741155 7.28515625 84.08203125 C6.86105469 85.04496094 6.43695312 86.00789063 6 87 C5.58621094 87.91136719 5.17242188 88.82273437 4.74609375 89.76171875 C3.81247261 91.83390225 2.89654528 93.91157688 2 96 C1.01 95.67 0.02 95.34 -1 95 C-2.01386337 92.70908749 -2.86883891 90.48423242 -3.6875 88.125 C-10.29438536 70.54700982 -22.55146022 60.4938685 -39.16601562 52.85253906 C-41.80603306 51.62531051 -44.4027387 50.31476271 -47 49 C-46.00767032 46.30733013 -45.46837568 45.21907895 -42.8203125 43.98046875 C-41.48613281 43.58794922 -41.48613281 43.58794922 -40.125 43.1875 C-23.03483112 37.4162126 -12.87731382 26.79027159 -5 11 C-3.81131392 8.28594796 -2.70411254 5.57677573 -1.69140625 2.79296875 C-1 1 -1 1 0 0 Z " fill="#9E9590" transform="translate(1935,1888)"/>
<path d="M0 0 C5.05514478 3.84513672 8.5783071 7.77413269 9.625 14.17578125 C9.90067086 20.40421969 8.96580249 25.46593516 5.1875 30.5 C1.53858968 34.30130101 -2.53977985 37.97095125 -7.890625 38.8359375 C-13.71215383 38.94064126 -18.07147127 37.98124219 -22.8125 34.5 C-28.15670602 29.2695005 -30.96067146 25.82641072 -31.125 18.25 C-31.05239484 11.65019129 -29.91161672 8.53302181 -25.1640625 3.88671875 C-17.83516441 -2.81810287 -8.99250361 -5.5246099 0 0 Z " fill="#423126" transform="translate(1320.8125,636.5)"/>
<path d="M0 0 C5.00591689 2.8468764 8.65917271 6.70888834 10.609375 12.1640625 C11.61405067 18.77002728 11.2360245 24.72264887 7.81640625 30.546875 C5.13343598 34.14153419 1.70432022 36.4572377 -2.390625 38.1640625 C-8.86486051 39.06542862 -14.7903164 39.12905955 -20.453125 35.6015625 C-24.1954206 32.63661875 -27.09815499 29.84280394 -28.390625 25.1640625 C-29.13558029 18.72799529 -29.38953687 12.53760032 -25.390625 7.1640625 C-18.12994035 -0.09662215 -10.36904876 -3.62577849 0 0 Z " fill="#402F24" transform="translate(1454.390625,807.8359375)"/>
<path d="M0 0 C0.66 0.33 1.32 0.66 2 1 C2.39794595 9.19052089 2.78945014 17.38131694 3.17345428 25.57250214 C3.35208571 29.37888818 3.53266904 33.18515745 3.71826172 36.99121094 C4.59517818 55.00600436 5.25941042 72.95700761 5 91 C4.67 91 4.34 91 4 91 C2.92743636 84.34295503 1.93566874 77.6776459 1 71 C0.88833496 70.22527344 0.77666992 69.45054687 0.66162109 68.65234375 C-1.17131315 55.39207305 -1.18355589 42.11014802 -1.1875 28.75 C-1.18849701 27.84319489 -1.18949402 26.93638977 -1.19052124 26.00210571 C-1.1901939 23.37111513 -1.18107744 20.7403305 -1.16796875 18.109375 C-1.16676025 17.32561996 -1.16555176 16.54186493 -1.16430664 15.73435974 C-1.12001677 10.42642448 -0.65605715 5.2680898 0 0 Z " fill="#524740" transform="translate(1107,678)"/>
<path d="M0 0 C0.66 0 1.32 0 2 0 C2.76320834 16.6769141 3.14795835 33.30574611 3 50 C2.67 50 2.34 50 2 50 C-4.66194924 7.35224406 -4.66194924 7.35224406 0 0 Z " fill="#52463F" transform="translate(1109,719)"/>
<path d="M0 0 C0.33 0 0.66 0 1 0 C1 7.59 1 15.18 1 23 C0.34 23.33 -0.32 23.66 -1 24 C-2.01629322 19.78035054 -2.16598183 15.77126004 -2.1875 11.4375 C-2.20167969 10.13683594 -2.21585938 8.83617187 -2.23046875 7.49609375 C-2.02063232 4.31298174 -1.69692677 2.63593763 0 0 Z " fill="#31241C" transform="translate(1109,719)"/>
<path d="M0 0 C0 3 0 3 -2.40625 5.69921875 C-3.4299968 6.70302243 -4.4616054 7.69885649 -5.5 8.6875 C-6.02464844 9.19861328 -6.54929687 9.70972656 -7.08984375 10.23632812 C-8.38660904 11.49772708 -9.69246117 12.74977212 -11 14 C-11.66 13.34 -12.32 12.68 -13 12 C-11.58653438 10.55935235 -10.16908789 9.12260985 -8.75 7.6875 C-7.96109375 6.88699219 -7.1721875 6.08648438 -6.359375 5.26171875 C-4.32605933 3.31256349 -2.29398922 1.62578594 0 0 Z " fill="#4C3E35" transform="translate(850,1159)"/>
<path d="M0 0 C0 3 0 3 -1.96875 5.26171875 C-2.8040625 6.06222656 -3.639375 6.86273437 -4.5 7.6875 C-5.3353125 8.49574219 -6.170625 9.30398438 -7.03125 10.13671875 C-8.00578125 11.05904297 -8.00578125 11.05904297 -9 12 C-9.99 11.67 -10.98 11.34 -12 11 C-10.75323147 9.72599623 -9.5024352 8.45593346 -8.25 7.1875 C-7.55390625 6.47980469 -6.8578125 5.77210937 -6.140625 5.04296875 C-4.18571355 3.17724121 -2.19661447 1.56830358 0 0 Z " fill="#D0C7C2" transform="translate(1331,1087)"/>
<path d="M0 0 C5.7646419 1.54661124 11.21219632 4.123968 14.4375 9.3125 C14.623125 9.869375 14.80875 10.42625 15 11 C11.43503982 9.37879192 8.40991178 7.2405574 5.25 4.9375 C3.77273438 3.86822266 3.77273438 3.86822266 2.265625 2.77734375 C1.51796875 2.19082031 0.7703125 1.60429688 0 1 C0 0.67 0 0.34 0 0 Z " fill="#453B33" transform="translate(814,658)"/>
<path d="M0 0 C1.1484375 1.640625 1.1484375 1.640625 2 4 C1.1015625 6.796875 1.1015625 6.796875 -0.375 9.75 C-0.85710937 10.73484375 -1.33921875 11.7196875 -1.8359375 12.734375 C-2.22007813 13.48203125 -2.60421875 14.2296875 -3 15 C-3.66 14.67 -4.32 14.34 -5 14 C-3.45730076 9.27934033 -1.92205381 4.58335908 0 0 Z " fill="#D2CAC4" transform="translate(1078,486)"/>
<path d="M0 0 C0.66 0.33 1.32 0.66 2 1 C0.02 3.31 -1.96 5.62 -4 8 C-4.99 7.67 -5.98 7.34 -7 7 C-4.69 4.69 -2.38 2.38 0 0 Z " fill="#4A3D34" transform="translate(1381,1095)"/>
<path d="M0 0 C0.66 0.66 1.32 1.32 2 2 C-1.465 4.97 -1.465 4.97 -5 8 C-5 5 -5 5 -2.5 2.3125 C-1.675 1.549375 -0.85 0.78625 0 0 Z " fill="#483931" transform="translate(1348,1127)"/>
<path d="M0 0 C0.66 1.32 1.32 2.64 2 4 C0.625 7.25 0.625 7.25 -1 10 C-1.66 10 -2.32 10 -3 10 C-2.01 6.7 -1.02 3.4 0 0 Z " fill="#CDC2BD" transform="translate(1068,510)"/>
<path d="M0 0 C0.66 0 1.32 0 2 0 C0.375 7.75 0.375 7.75 -3 10 C-2.01 6.7 -1.02 3.4 0 0 Z " fill="#D0C6C2" transform="translate(738,1234)"/>
<path d="M0 0 C0.66 0.33 1.32 0.66 2 1 C-1.465 3.97 -1.465 3.97 -5 7 C-5.66 6.67 -6.32 6.34 -7 6 C-4.69 4.02 -2.38 2.04 0 0 Z " fill="#483B33" transform="translate(1356,1120)"/>
<path d="M0 0 C0.66 0 1.32 0 2 0 C1.67 2.97 1.34 5.94 1 9 C0.34 9 -0.32 9 -1 9 C-0.67 6.03 -0.34 3.06 0 0 Z " fill="#50463B" transform="translate(1184,764)"/>
<path d="M0 0 C0.33 0.99 0.66 1.98 1 3 C-0.65 4.32 -2.3 5.64 -4 7 C-4.66 6.67 -5.32 6.34 -6 6 C-4.02 4.02 -2.04 2.04 0 0 Z " fill="#4A3F36" transform="translate(1010,1472)"/>
</svg>
